<?xml version="1.0" encoding="utf-8"?>
<!-- Generator: Adobe Illustrator 23.0.4, SVG Export Plug-In . SVG Version: 6.00 Build 0)  -->
<svg version="1.1" id="b78a6ab5-c61e-4649-a174-c3a0834b449d"
	 xmlns="http://www.w3.org/2000/svg" xmlns:xlink="http://www.w3.org/1999/xlink" x="0px" y="0px" viewBox="0 0 875.6 740.1"
	 style="enable-background:new 0 0 875.6 740.1;" xml:space="preserve">
<style type="text/css">
	.st0{fill:#2F2E41;}
	.st1{fill:#FFB8B8;}
	.st2{opacity:0.1;enable-background:new    ;}
	.st3{fill:#D0CDE1;}
	.st4{fill:#1970AD;}
	.st5{fill:#3F3D56;}
	.st6{fill:#F2F2F2;}
	.st7{fill:#FF6584;}
	.st8{fill:#FFFFFF;}
</style>
<title>popular</title>
<rect x="424.8" y="111" class="st0" width="75" height="95"/>
<path class="st0" d="M500.8,114c-6.7,19.9-17,38-38,38s-36.8-17-38-38c-1.5-26.8,16.5-38.1,38-38C488.2,76.2,508.8,90.4,500.8,114z"
	/>
<path class="st1" d="M481.5,143.6c0,0-6,36-3,37s-34,5-34,5s11-27,8-32S481.5,143.6,481.5,143.6z"/>
<path class="st2" d="M481.5,143.6c0,0-6,36-3,37s-34,5-34,5s11-27,8-32S481.5,143.6,481.5,143.6z"/>
<path class="st1" d="M555.9,273.1l16.5,13.1c0,0-13.7-69.2-14-74.3s-13.2-39.9-27-34.6s9.8,43.5,9.8,43.5l15.4,55.3L555.9,273.1z"/>
<circle class="st1" cx="460.5" cy="133.6" r="29"/>
<path class="st3" d="M460.5,175.6l-13-6c0,0-7,13-11,13s-38,7-38,14s10,57,10,57s20,48,21,48s72-9,72-9l4-11l6-65c0,0-24-16-24-21
	s-2-22-6-22s-11,6-11,6L460.5,175.6z"/>
<path class="st3" d="M502.5,220.6l9-4c0,0,7,13,9,14s5,6,5,8s6,18,11,19s13,5,12,8c-0.6,1.6-0.6,3.4,0,5l4-5l21,16c0,0,11,34-5,33
	s-30-9-37-13s-7-2-11-8s-21-17-21-17L502.5,220.6z"/>
<path class="st0" d="M429.5,292.6l-8,4l2,15c0,0-111,393-95,396s61,11,85,17s58,7,58,0s10-256,10-256s3,264,12,264s83,16,88,0
	s-24-376-60-418c0,0-18-23-17-26s-1-7-1-7s1-2-10,1s-16,3-19,2s-8-5-11-2s-12,8-16,7s-6-7-10-3C435.1,289,432.4,291,429.5,292.6z"/>
<path class="st0" d="M334.5,704.6c0,0-6,32,0,33s36,3,37,1s-7-30-10-32S334.5,704.6,334.5,704.6z"/>
<path class="st0" d="M541.5,708.6c0,0,6,28,0,29s-36,3-37,1s7-26,10-28S541.5,708.6,541.5,708.6z"/>
<path class="st1" d="M341,277.1c0,0,41,11,51,13s21,12,22,16s10,22,17,18s0-38-5-39s-66-18-66-18L341,277.1z"/>
<path class="st3" d="M409.5,194.6h-11l-64,48c0,0-15,4-14,7s-15,21-5,25s18,5,22,8s29-14,29-14l-4-3c0,0,46-16,50-14
	S409.5,194.6,409.5,194.6z"/>
<polygon class="st4" points="439,179.1 463,194.1 461,248.1 468,235.1 472,248.1 472,194.1 489,194.1 488,185.1 468,188.1 
	442,174.1 "/>
<path class="st0" d="M445,94c0,0-0.3-1.8-13.2,3s-20.6,40.5-14.2,61.5c2.6,8.4,0.5,14.5-3,18.8c-12.9,16-7.8,40,11,48.2
	c0.5,0.2,1.1,0.5,1.6,0.7l8.1,4.8c0,0-10.3-13.5-5.1-30.8c4.5-14.7,5-30.4,1.6-45.4c-0.6-2.5-1.3-5.1-2-7.8
	c-6.4-22.6-3.3-20,19.3-42.5c0,0,12.9,9.7,24.2,14.5s21,9.7,12.9,25.8s-27.4,30.6-14.5,51.6s14.5,12.9,12.9,21l0,0l-1.6,8.1l9.7-9.7
	l-6.4,12.9c0,0,21,0,27.4-16.1l3.2,3.2c0,0,12.9-22.6-11.3-43.5c0,0-8.1-4.8,3.2-21s2.6-50.8-11.9-57.2S445,94,445,94z"/>
<circle class="st0" cx="462.8" cy="69" r="15"/>
<path class="st0" d="M444.8,61c0-7.7,5.8-14.2,13.5-14.9c-0.5,0-1-0.1-1.5-0.1c-8.3,0-15,6.7-15,15s6.7,15,15,15c0.5,0,1,0,1.5-0.1
	C450.7,75.2,444.8,68.7,444.8,61z"/>
<ellipse class="st1" cx="489.8" cy="130" rx="2" ry="4"/>
<path class="st5" d="M141.2,674.4c6.7,24.8,29.7,40.1,29.7,40.1s12.1-24.8,5.4-49.6s-29.7-40.1-29.7-40.1S134.5,649.6,141.2,674.4z"
	/>
<path class="st4" d="M151.1,669c18.4,17.9,20.6,45.5,20.6,45.5s-27.6-1.5-46-19.4s-20.6-45.5-20.6-45.5S132.7,651.1,151.1,669z"/>
<rect x="123.1" y="738.1" class="st0" width="648" height="2"/>
<path class="st5" d="M180,739.1h-26v-26h26V739.1z M156,737.1h22v-22h-22V737.1z"/>
<polyline class="st6" points="220.5,483.1 0,483.1 0,347.1 251,347.1 251,442.4 "/>
<polygon points="232.5,473.1 11,473.1 11,335.1 264,335.1 264,431.4 262,431.4 262,337.1 13,337.1 13,471.1 232.5,471.1 "/>
<polygon points="322.9,473.6 263,473.6 263,471.6 315.1,471.6 263,442.6 264,440.8 "/>
<rect x="40" y="383.1" width="195" height="2"/>
<rect x="40" y="403.1" width="195" height="2"/>
<rect x="40" y="423.1" width="195" height="2"/>
<circle class="st4" cx="319" cy="472.2" r="8.2"/>
<path class="st7" d="M158.1,323.9l-4.1-1.3c-14.7-4.9-24.3-8.1-27.7-15.8c-2.8-6-0.2-13.2,5.8-16c0.1,0,0.2-0.1,0.3-0.1
	c3.5-1.5,7.5-1.5,11,0.2c1.1-3.7,3.7-6.7,7.2-8.3c6-2.8,13.2-0.1,15.9,5.9c0,0.1,0.1,0.2,0.1,0.3c3.4,7.7-0.7,17-6.9,31.2
	L158.1,323.9z"/>
<rect x="188" y="119.9" class="st6" width="93.3" height="64.2"/>
<path d="M289,178.3h-95.3v-66.2H289V178.3z M195.7,176.3H287v-62.2h-91.3V176.3z"/>
<polygon points="241,146.4 194.1,114 195.3,112.3 241,144 287.4,112.3 288.6,114 "/>
<circle class="st4" cx="241" cy="145.2" r="8.2"/>
<path class="st7" d="M227.8,97.6l-2.8-0.9c-10-3.4-16.5-5.5-18.9-10.8c-1.9-4.1-0.1-9,4-10.9c0.1,0,0.1-0.1,0.2-0.1
	c2.4-1,5.1-1,7.5,0.2c0.7-2.5,2.5-4.6,4.9-5.7c4.1-1.9,9-0.1,10.9,4c0,0.1,0.1,0.1,0.1,0.2c2.3,5.3-0.5,11.6-4.7,21.2L227.8,97.6z"
	/>
<rect x="671" y="447.9" class="st6" width="93.3" height="64.2"/>
<rect x="741" y="455.1" class="st4" width="20" height="6"/>
<rect x="715" y="472.1" class="st8" width="46" height="4"/>
<rect x="694" y="480.1" class="st8" width="67" height="4"/>
<rect x="694" y="488.1" class="st8" width="67" height="4"/>
<path class="st7" d="M736.4,436.2l-0.9-1.9c-3.2-6.9-5.4-11.3-3.8-15.2c1.2-3,4.6-4.5,7.6-3.4c0.1,0,0.1,0,0.2,0.1
	c1.7,0.7,3.1,2.2,3.7,4c1.7-0.9,3.6-1,5.4-0.3c3,1.2,4.5,4.6,3.3,7.6c0,0.1,0,0.1-0.1,0.2c-1.6,3.8-6.2,5.5-13.3,8.2L736.4,436.2z"
	/>
<polyline class="st6" points="649.5,209.1 870,209.1 870,73.1 619,73.1 619,168.4 "/>
<polygon points="859,199.1 637.5,199.1 637.5,197.1 857,197.1 857,63.1 608,63.1 608,157.4 606,157.4 606,61.1 859,61.1 "/>
<polygon points="607,199.6 547.1,199.6 606,166.8 607,168.6 554.9,197.6 607,197.6 "/>
<rect x="635" y="109.1" width="195" height="2"/>
<rect x="635" y="129.1" width="195" height="2"/>
<rect x="635" y="149.1" width="195" height="2"/>
<circle class="st4" cx="551" cy="198.2" r="8.2"/>
<path class="st7" d="M844.1,34.3l-0.6-3.6c-2.1-12.8-3.6-21.1,0.7-26.7c3.3-4.4,9.6-5.3,14.1-2c0.1,0.1,0.2,0.1,0.2,0.2
	c2.5,2,4,5,4.2,8.2c3.1-0.7,6.4,0.1,9,2c4.4,3.4,5.3,9.7,1.9,14.1c-0.1,0.1-0.1,0.2-0.2,0.2c-4.3,5.6-12.8,6.2-25.7,7.2L844.1,34.3z
	"/>
</svg>
